0
SECTION
2
ENTITIES
0
POLYLINE
8
PCB_OUTLINE
66
1
70
1
0
VERTEX
8
PCB_OUTLINE
10
-19.500
20
-2.500
30
0.0
0
VERTEX
8
PCB_OUTLINE
10
19.000
20
-2.500
30
0.0
0
VERTEX
8
PCB_OUTLINE
10
19.000
20
10.500
30
0.0
0
VERTEX
8
PCB_OUTLINE
10
17.500
20
18.500
30
0.0
0
VERTEX
8
PCB_OUTLINE
10
16.500
20
19.500
30
0.0
0
VERTEX
8
PCB_OUTLINE
10
12.000
20
20.500
30
0.0
0
VERTEX
8
PCB_OUTLINE
10
10.500
20
24.500
30
0.0
0
VERTEX
8
PCB_OUTLINE
10
9.500
20
25.500
30
0.0
0
VERTEX
8
PCB_OUTLINE
10
9.500
20
33.000
30
0.0
0
VERTEX
8
PCB_OUTLINE
10
8.000
20
33.500
30
0.0
0
VERTEX
8
PCB_OUTLINE
10
-8.500
20
33.500
30
0.0
0
VERTEX
8
PCB_OUTLINE
10
-10.000
20
33.000
30
0.0
0
VERTEX
8
PCB_OUTLINE
10
-10.500
20
32.500
30
0.0
0
VERTEX
8
PCB_OUTLINE
10
-10.500
20
26.500
30
0.0
0
VERTEX
8
PCB_OUTLINE
10
-11.500
20
21.500
30
0.0
0
VERTEX
8
PCB_OUTLINE
10
-12.500
20
20.500
30
0.0
0
VERTEX
8
PCB_OUTLINE
10
-17.000
20
19.500
30
0.0
0
VERTEX
8
PCB_OUTLINE
10
-18.500
20
17.000
30
0.0
0
VERTEX
8
PCB_OUTLINE
10
-19.500
20
11.500
30
0.0
0
SEQEND
0
POLYLINE
8
USABLE_AREA
66
1
70
1
0
VERTEX
8
USABLE_AREA
10
-21.496
20
-2.996
30
0.0
0
VERTEX
8
USABLE_AREA
10
-21.500
20
-2.921
30
0.0
0
VERTEX
8
USABLE_AREA
10
-21.500
20
7.421
30
0.0
0
VERTEX
8
USABLE_AREA
10
-21.496
20
7.499
30
0.0
0
VERTEX
8
USABLE_AREA
10
-21.480
20
7.520
30
0.0
0
VERTEX
8
USABLE_AREA
10
-21.315
20
7.766
30
0.0
0
VERTEX
8
USABLE_AREA
10
-21.174
20
8.025
30
0.0
0
VERTEX
8
USABLE_AREA
10
-21.056
20
8.297
30
0.0
0
VERTEX
8
USABLE_AREA
10
-20.965
20
8.579
30
0.0
0
VERTEX
8
USABLE_AREA
10
-20.900
20
8.867
30
0.0
0
VERTEX
8
USABLE_AREA
10
-20.862
20
9.161
30
0.0
0
VERTEX
8
USABLE_AREA
10
-20.507
20
13.421
30
0.0
0
VERTEX
8
USABLE_AREA
10
-20.496
20
13.499
30
0.0
0
VERTEX
8
USABLE_AREA
10
-20.427
20
13.618
30
0.0
0
VERTEX
8
USABLE_AREA
10
-20.284
20
13.890
30
0.0
0
VERTEX
8
USABLE_AREA
10
-20.169
20
14.175
30
0.0
0
VERTEX
8
USABLE_AREA
10
-20.081
20
14.469
30
0.0
0
VERTEX
8
USABLE_AREA
10
-20.022
20
14.771
30
0.0
0
VERTEX
8
USABLE_AREA
10
-20.007
20
14.926
30
0.0
0
VERTEX
8
USABLE_AREA
10
-19.996
20
14.999
30
0.0
0
VERTEX
8
USABLE_AREA
10
-19.995
20
15.001
30
0.0
0
VERTEX
8
USABLE_AREA
10
-19.820
20
15.264
30
0.0
0
VERTEX
8
USABLE_AREA
10
-19.669
20
15.549
30
0.0
0
VERTEX
8
USABLE_AREA
10
-19.547
20
15.848
30
0.0
0
VERTEX
8
USABLE_AREA
10
-19.493
20
16.004
30
0.0
0
VERTEX
8
USABLE_AREA
10
-19.444
20
16.086
30
0.0
0
VERTEX
8
USABLE_AREA
10
-19.296
20
16.363
30
0.0
0
VERTEX
8
USABLE_AREA
10
-19.176
20
16.653
30
0.0
0
VERTEX
8
USABLE_AREA
10
-19.085
20
16.954
30
0.0
0
VERTEX
8
USABLE_AREA
10
-19.023
20
17.262
30
0.0
0
VERTEX
8
USABLE_AREA
10
-19.007
20
17.426
30
0.0
0
VERTEX
8
USABLE_AREA
10
-18.996
20
17.499
30
0.0
0
VERTEX
8
USABLE_AREA
10
-18.996
20
17.499
30
0.0
0
VERTEX
8
USABLE_AREA
10
-18.825
20
17.754
30
0.0
0
VERTEX
8
USABLE_AREA
10
-18.679
20
18.026
30
0.0
0
VERTEX
8
USABLE_AREA
10
-18.560
20
18.311
30
0.0
0
VERTEX
8
USABLE_AREA
10
-18.532
20
18.402
30
0.0
0
VERTEX
8
USABLE_AREA
10
-18.497
20
18.498
30
0.0
0
VERTEX
8
USABLE_AREA
10
-18.458
20
18.531
30
0.0
0
VERTEX
8
USABLE_AREA
10
-18.225
20
18.755
30
0.0
0
VERTEX
8
USABLE_AREA
10
-18.016
20
19.001
30
0.0
0
VERTEX
8
USABLE_AREA
10
-17.833
20
19.267
30
0.0
0
VERTEX
8
USABLE_AREA
10
-17.677
20
19.550
30
0.0
0
VERTEX
8
USABLE_AREA
10
-17.551
20
19.847
30
0.0
0
VERTEX
8
USABLE_AREA
10
-17.496
20
19.998
30
0.0
0
VERTEX
8
USABLE_AREA
10
-17.457
20
20.032
30
0.0
0
VERTEX
8
USABLE_AREA
10
-17.221
20
20.259
30
0.0
0
VERTEX
8
USABLE_AREA
10
-17.009
20
20.509
30
0.0
0
VERTEX
8
USABLE_AREA
10
-16.825
20
20.780
30
0.0
0
VERTEX
8
USABLE_AREA
10
-16.668
20
21.068
30
0.0
0
VERTEX
8
USABLE_AREA
10
-16.542
20
21.370
30
0.0
0
VERTEX
8
USABLE_AREA
10
-16.497
20
21.498
30
0.0
0
VERTEX
8
USABLE_AREA
10
-16.432
20
21.569
30
0.0
0
VERTEX
8
USABLE_AREA
10
-16.347
20
21.654
30
0.0
0
VERTEX
8
USABLE_AREA
10
-16.148
20
21.897
30
0.0
0
VERTEX
8
USABLE_AREA
10
-15.973
20
22.158
30
0.0
0
VERTEX
8
USABLE_AREA
10
-15.825
20
22.435
30
0.0
0
VERTEX
8
USABLE_AREA
10
-15.705
20
22.725
30
0.0
0
VERTEX
8
USABLE_AREA
10
-15.614
20
23.026
30
0.0
0
VERTEX
8
USABLE_AREA
10
-15.553
20
23.334
30
0.0
0
VERTEX
8
USABLE_AREA
10
-15.522
20
23.646
30
0.0
0
VERTEX
8
USABLE_AREA
10
-15.522
20
23.960
30
0.0
0
VERTEX
8
USABLE_AREA
10
-15.553
20
24.273
30
0.0
0
VERTEX
8
USABLE_AREA
10
-15.614
20
24.581
30
0.0
0
VERTEX
8
USABLE_AREA
10
-15.705
20
24.881
30
0.0
0
VERTEX
8
USABLE_AREA
10
-15.825
20
25.172
30
0.0
0
VERTEX
8
USABLE_AREA
10
-15.973
20
25.449
30
0.0
0
VERTEX
8
USABLE_AREA
10
-16.148
20
25.710
30
0.0
0
VERTEX
8
USABLE_AREA
10
-16.347
20
25.952
30
0.0
0
VERTEX
8
USABLE_AREA
10
-16.569
20
26.174
30
0.0
0
VERTEX
8
USABLE_AREA
10
-16.812
20
26.374
30
0.0
0
VERTEX
8
USABLE_AREA
10
-16.928
20
26.451
30
0.0
0
VERTEX
8
USABLE_AREA
10
-16.996
20
26.502
30
0.0
0
VERTEX
8
USABLE_AREA
10
-17.000
20
26.579
30
0.0
0
VERTEX
8
USABLE_AREA
10
-17.000
20
33.921
30
0.0
0
VERTEX
8
USABLE_AREA
10
-16.996
20
33.998
30
0.0
0
VERTEX
8
USABLE_AREA
10
-16.911
20
34.076
30
0.0
0
VERTEX
8
USABLE_AREA
10
-16.849
20
34.127
30
0.0
0
VERTEX
8
USABLE_AREA
10
-16.627
20
34.349
30
0.0
0
VERTEX
8
USABLE_AREA
10
-16.576
20
34.411
30
0.0
0
VERTEX
8
USABLE_AREA
10
-16.498
20
34.496
30
0.0
0
VERTEX
8
USABLE_AREA
10
-16.421
20
34.500
30
0.0
0
VERTEX
8
USABLE_AREA
10
15.921
20
34.500
30
0.0
0
VERTEX
8
USABLE_AREA
10
15.998
20
34.496
30
0.0
0
VERTEX
8
USABLE_AREA
10
16.076
20
34.411
30
0.0
0
VERTEX
8
USABLE_AREA
10
16.127
20
34.349
30
0.0
0
VERTEX
8
USABLE_AREA
10
16.349
20
34.127
30
0.0
0
VERTEX
8
USABLE_AREA
10
16.411
20
34.076
30
0.0
0
VERTEX
8
USABLE_AREA
10
16.496
20
33.998
30
0.0
0
VERTEX
8
USABLE_AREA
10
16.500
20
33.921
30
0.0
0
VERTEX
8
USABLE_AREA
10
16.500
20
26.579
30
0.0
0
VERTEX
8
USABLE_AREA
10
16.496
20
26.502
30
0.0
0
VERTEX
8
USABLE_AREA
10
16.428
20
26.451
30
0.0
0
VERTEX
8
USABLE_AREA
10
16.312
20
26.374
30
0.0
0
VERTEX
8
USABLE_AREA
10
16.069
20
26.174
30
0.0
0
VERTEX
8
USABLE_AREA
10
15.847
20
25.952
30
0.0
0
VERTEX
8
USABLE_AREA
10
15.647
20
25.709
30
0.0
0
VERTEX
8
USABLE_AREA
10
15.473
20
25.448
30
0.0
0
VERTEX
8
USABLE_AREA
10
15.325
20
25.171
30
0.0
0
VERTEX
8
USABLE_AREA
10
15.205
20
24.881
30
0.0
0
VERTEX
8
USABLE_AREA
10
15.114
20
24.580
30
0.0
0
VERTEX
8
USABLE_AREA
10
15.052
20
24.272
30
0.0
0
VERTEX
8
USABLE_AREA
10
15.022
20
23.960
30
0.0
0
VERTEX
8
USABLE_AREA
10
15.022
20
23.645
30
0.0
0
VERTEX
8
USABLE_AREA
10
15.053
20
23.333
30
0.0
0
VERTEX
8
USABLE_AREA
10
15.114
20
23.025
30
0.0
0
VERTEX
8
USABLE_AREA
10
15.205
20
22.724
30
0.0
0
VERTEX
8
USABLE_AREA
10
15.326
20
22.434
30
0.0
0
VERTEX
8
USABLE_AREA
10
15.474
20
22.157
30
0.0
0
VERTEX
8
USABLE_AREA
10
15.649
20
21.896
30
0.0
0
VERTEX
8
USABLE_AREA
10
15.848
20
21.653
30
0.0
0
VERTEX
8
USABLE_AREA
10
15.931
20
21.570
30
0.0
0
VERTEX
8
USABLE_AREA
10
15.997
20
21.498
30
0.0
0
VERTEX
8
USABLE_AREA
10
16.043
20
21.369
30
0.0
0
VERTEX
8
USABLE_AREA
10
16.169
20
21.067
30
0.0
0
VERTEX
8
USABLE_AREA
10
16.325
20
20.779
30
0.0
0
VERTEX
8
USABLE_AREA
10
16.510
20
20.509
30
0.0
0
VERTEX
8
USABLE_AREA
10
16.721
20
20.259
30
0.0
0
VERTEX
8
USABLE_AREA
10
16.957
20
20.032
30
0.0
0
VERTEX
8
USABLE_AREA
10
16.997
20
19.998
30
0.0
0
VERTEX
8
USABLE_AREA
10
17.032
20
19.902
30
0.0
0
VERTEX
8
USABLE_AREA
10
17.060
20
19.811
30
0.0
0
VERTEX
8
USABLE_AREA
10
17.179
20
19.526
30
0.0
0
VERTEX
8
USABLE_AREA
10
17.325
20
19.254
30
0.0
0
VERTEX
8
USABLE_AREA
10
17.496
20
18.999
30
0.0
0
VERTEX
8
USABLE_AREA
10
17.496
20
18.998
30
0.0
0
VERTEX
8
USABLE_AREA
10
17.540
20
18.878
30
0.0
0
VERTEX
8
USABLE_AREA
10
17.556
20
18.823
30
0.0
0
VERTEX
8
USABLE_AREA
10
17.676
20
18.533
30
0.0
0
VERTEX
8
USABLE_AREA
10
17.824
20
18.256
30
0.0
0
VERTEX
8
USABLE_AREA
10
17.995
20
18.001
30
0.0
0
VERTEX
8
USABLE_AREA
10
17.996
20
17.998
30
0.0
0
VERTEX
8
USABLE_AREA
10
18.040
20
17.878
30
0.0
0
VERTEX
8
USABLE_AREA
10
18.056
20
17.823
30
0.0
0
VERTEX
8
USABLE_AREA
10
18.176
20
17.533
30
0.0
0
VERTEX
8
USABLE_AREA
10
18.324
20
17.256
30
0.0
0
VERTEX
8
USABLE_AREA
10
18.495
20
17.001
30
0.0
0
VERTEX
8
USABLE_AREA
10
18.496
20
16.998
30
0.0
0
VERTEX
8
USABLE_AREA
10
18.548
20
16.855
30
0.0
0
VERTEX
8
USABLE_AREA
10
18.563
20
16.806
30
0.0
0
VERTEX
8
USABLE_AREA
10
18.695
20
16.497
30
0.0
0
VERTEX
8
USABLE_AREA
10
18.858
20
16.203
30
0.0
0
VERTEX
8
USABLE_AREA
10
18.938
20
16.090
30
0.0
0
VERTEX
8
USABLE_AREA
10
18.997
20
15.999
30
0.0
0
VERTEX
8
USABLE_AREA
10
19.011
20
15.925
30
0.0
0
VERTEX
8
USABLE_AREA
10
19.269
20
14.118
30
0.0
0
VERTEX
8
USABLE_AREA
10
19.329
20
13.809
30
0.0
0
VERTEX
8
USABLE_AREA
10
19.418
20
13.507
30
0.0
0
VERTEX
8
USABLE_AREA
10
19.537
20
13.216
30
0.0
0
VERTEX
8
USABLE_AREA
10
19.684
20
12.938
30
0.0
0
VERTEX
8
USABLE_AREA
10
19.858
20
12.675
30
0.0
0
VERTEX
8
USABLE_AREA
10
19.945
20
12.569
30
0.0
0
VERTEX
8
USABLE_AREA
10
19.996
20
12.498
30
0.0
0
VERTEX
8
USABLE_AREA
10
20.007
20
12.421
30
0.0
0
VERTEX
8
USABLE_AREA
10
20.349
20
8.656
30
0.0
0
VERTEX
8
USABLE_AREA
10
20.389
20
8.367
30
0.0
0
VERTEX
8
USABLE_AREA
10
20.455
20
8.082
30
0.0
0
VERTEX
8
USABLE_AREA
10
20.546
20
7.805
30
0.0
0
VERTEX
8
USABLE_AREA
10
20.663
20
7.537
30
0.0
0
VERTEX
8
USABLE_AREA
10
20.803
20
7.281
30
0.0
0
VERTEX
8
USABLE_AREA
10
20.966
20
7.039
30
0.0
0
VERTEX
8
USABLE_AREA
10
20.996
20
6.999
30
0.0
0
VERTEX
8
USABLE_AREA
10
21.000
20
6.921
30
0.0
0
VERTEX
8
USABLE_AREA
10
21.000
20
6.579
30
0.0
0
VERTEX
8
USABLE_AREA
10
20.996
20
6.501
30
0.0
0
VERTEX
8
USABLE_AREA
10
20.955
20
6.433
30
0.0
0
VERTEX
8
USABLE_AREA
10
20.819
20
6.180
30
0.0
0
VERTEX
8
USABLE_AREA
10
20.705
20
5.915
30
0.0
0
VERTEX
8
USABLE_AREA
10
20.616
20
5.641
30
0.0
0
VERTEX
8
USABLE_AREA
10
20.552
20
5.361
30
0.0
0
VERTEX
8
USABLE_AREA
10
20.513
20
5.075
30
0.0
0
VERTEX
8
USABLE_AREA
10
20.500
20
4.788
30
0.0
0
VERTEX
8
USABLE_AREA
10
20.500
20
0.212
30
0.0
0
VERTEX
8
USABLE_AREA
10
20.513
20
-0.075
30
0.0
0
VERTEX
8
USABLE_AREA
10
20.552
20
-0.361
30
0.0
0
VERTEX
8
USABLE_AREA
10
20.616
20
-0.641
30
0.0
0
VERTEX
8
USABLE_AREA
10
20.705
20
-0.915
30
0.0
0
VERTEX
8
USABLE_AREA
10
20.819
20
-1.180
30
0.0
0
VERTEX
8
USABLE_AREA
10
20.955
20
-1.433
30
0.0
0
VERTEX
8
USABLE_AREA
10
20.996
20
-1.501
30
0.0
0
VERTEX
8
USABLE_AREA
10
21.000
20
-1.579
30
0.0
0
VERTEX
8
USABLE_AREA
10
21.000
20
-2.921
30
0.0
0
VERTEX
8
USABLE_AREA
10
20.996
20
-2.996
30
0.0
0
VERTEX
8
USABLE_AREA
10
20.921
20
-3.000
30
0.0
0
VERTEX
8
USABLE_AREA
10
-21.421
20
-3.000
30
0.0
0
SEQEND
0
POLYLINE
8
HOLE_0
66
1
70
1
0
VERTEX
8
HOLE_0
10
-13.400
20
0.500
30
0.0
0
VERTEX
8
HOLE_0
10
-13.421
20
0.285
30
0.0
0
VERTEX
8
HOLE_0
10
-13.484
20
0.079
30
0.0
0
VERTEX
8
HOLE_0
10
-13.585
20
-0.111
30
0.0
0
VERTEX
8
HOLE_0
10
-13.722
20
-0.278
30
0.0
0
VERTEX
8
HOLE_0
10
-13.889
20
-0.415
30
0.0
0
VERTEX
8
HOLE_0
10
-14.079
20
-0.516
30
0.0
0
VERTEX
8
HOLE_0
10
-14.285
20
-0.579
30
0.0
0
VERTEX
8
HOLE_0
10
-14.500
20
-0.600
30
0.0
0
VERTEX
8
HOLE_0
10
-14.715
20
-0.579
30
0.0
0
VERTEX
8
HOLE_0
10
-14.921
20
-0.516
30
0.0
0
VERTEX
8
HOLE_0
10
-15.111
20
-0.415
30
0.0
0
VERTEX
8
HOLE_0
10
-15.278
20
-0.278
30
0.0
0
VERTEX
8
HOLE_0
10
-15.415
20
-0.111
30
0.0
0
VERTEX
8
HOLE_0
10
-15.516
20
0.079
30
0.0
0
VERTEX
8
HOLE_0
10
-15.579
20
0.285
30
0.0
0
VERTEX
8
HOLE_0
10
-15.600
20
0.500
30
0.0
0
VERTEX
8
HOLE_0
10
-15.579
20
0.715
30
0.0
0
VERTEX
8
HOLE_0
10
-15.516
20
0.921
30
0.0
0
VERTEX
8
HOLE_0
10
-15.415
20
1.111
30
0.0
0
VERTEX
8
HOLE_0
10
-15.278
20
1.278
30
0.0
0
VERTEX
8
HOLE_0
10
-15.111
20
1.415
30
0.0
0
VERTEX
8
HOLE_0
10
-14.921
20
1.516
30
0.0
0
VERTEX
8
HOLE_0
10
-14.715
20
1.579
30
0.0
0
VERTEX
8
HOLE_0
10
-14.500
20
1.600
30
0.0
0
VERTEX
8
HOLE_0
10
-14.285
20
1.579
30
0.0
0
VERTEX
8
HOLE_0
10
-14.079
20
1.516
30
0.0
0
VERTEX
8
HOLE_0
10
-13.889
20
1.415
30
0.0
0
VERTEX
8
HOLE_0
10
-13.722
20
1.278
30
0.0
0
VERTEX
8
HOLE_0
10
-13.585
20
1.111
30
0.0
0
VERTEX
8
HOLE_0
10
-13.484
20
0.921
30
0.0
0
VERTEX
8
HOLE_0
10
-13.421
20
0.715
30
0.0
0
SEQEND
0
POLYLINE
8
HOLE_1
66
1
70
1
0
VERTEX
8
HOLE_1
10
15.600
20
0.500
30
0.0
0
VERTEX
8
HOLE_1
10
15.579
20
0.285
30
0.0
0
VERTEX
8
HOLE_1
10
15.516
20
0.079
30
0.0
0
VERTEX
8
HOLE_1
10
15.415
20
-0.111
30
0.0
0
VERTEX
8
HOLE_1
10
15.278
20
-0.278
30
0.0
0
VERTEX
8
HOLE_1
10
15.111
20
-0.415
30
0.0
0
VERTEX
8
HOLE_1
10
14.921
20
-0.516
30
0.0
0
VERTEX
8
HOLE_1
10
14.715
20
-0.579
30
0.0
0
VERTEX
8
HOLE_1
10
14.500
20
-0.600
30
0.0
0
VERTEX
8
HOLE_1
10
14.285
20
-0.579
30
0.0
0
VERTEX
8
HOLE_1
10
14.079
20
-0.516
30
0.0
0
VERTEX
8
HOLE_1
10
13.889
20
-0.415
30
0.0
0
VERTEX
8
HOLE_1
10
13.722
20
-0.278
30
0.0
0
VERTEX
8
HOLE_1
10
13.585
20
-0.111
30
0.0
0
VERTEX
8
HOLE_1
10
13.484
20
0.079
30
0.0
0
VERTEX
8
HOLE_1
10
13.421
20
0.285
30
0.0
0
VERTEX
8
HOLE_1
10
13.400
20
0.500
30
0.0
0
VERTEX
8
HOLE_1
10
13.421
20
0.715
30
0.0
0
VERTEX
8
HOLE_1
10
13.484
20
0.921
30
0.0
0
VERTEX
8
HOLE_1
10
13.585
20
1.111
30
0.0
0
VERTEX
8
HOLE_1
10
13.722
20
1.278
30
0.0
0
VERTEX
8
HOLE_1
10
13.889
20
1.415
30
0.0
0
VERTEX
8
HOLE_1
10
14.079
20
1.516
30
0.0
0
VERTEX
8
HOLE_1
10
14.285
20
1.579
30
0.0
0
VERTEX
8
HOLE_1
10
14.500
20
1.600
30
0.0
0
VERTEX
8
HOLE_1
10
14.715
20
1.579
30
0.0
0
VERTEX
8
HOLE_1
10
14.921
20
1.516
30
0.0
0
VERTEX
8
HOLE_1
10
15.111
20
1.415
30
0.0
0
VERTEX
8
HOLE_1
10
15.278
20
1.278
30
0.0
0
VERTEX
8
HOLE_1
10
15.415
20
1.111
30
0.0
0
VERTEX
8
HOLE_1
10
15.516
20
0.921
30
0.0
0
VERTEX
8
HOLE_1
10
15.579
20
0.715
30
0.0
0
SEQEND
0
ENDSEC
0
EOF
